<svg width="78" height="68" viewBox="0 0 78 68" fill="none" xmlns="http://www.w3.org/2000/svg">
<g clip-path="url(#clip0)">
<path d="M37.5408 0.59906H77.602V12.2819V24.2643" stroke="#BD2CB7" stroke-width="3"/>
<path d="M22.2857 40.8899H0.530596V67.5507H63.6735" stroke="#1EBCFF" stroke-width="3"/>
<path d="M50.2623 6.14099C51.3853 6.14099 52.2566 6.43555 52.8755 7.02469C53.4945 7.61383 53.8041 8.4526 53.8041 9.54099C53.8041 10.6294 53.4945 11.4681 52.8755 12.0573C52.2566 12.6464 51.3853 12.941 50.2623 12.941H48.6174V16.0265H45.9112V6.14099H50.2623ZM49.8245 10.7242C50.2312 10.7242 50.5408 10.6294 50.7531 10.4397C50.9741 10.24 51.0847 9.94039 51.0847 9.54099C51.0847 9.14159 50.9741 8.847 50.7531 8.65729C50.5408 8.45757 50.2312 8.35773 49.8245 8.35773H48.6174V10.7242H49.8245ZM59.5278 6.14099C60.6156 6.14099 61.4555 6.42557 62.0482 6.99474C62.6494 7.55392 62.9503 8.30282 62.9503 9.24143C62.9503 9.98035 62.8043 10.5945 62.5125 11.0837C62.2294 11.563 61.8094 11.9175 61.2523 12.1472L63.4543 16.0265H60.4962L58.7982 12.5965H57.6972V16.0265H55.0441V6.14099H59.5278ZM59.0901 10.5146C59.4702 10.5146 59.7533 10.4347 59.939 10.2749C60.1335 10.1052 60.2309 9.83057 60.2309 9.45112C60.2309 9.07167 60.1335 8.79709 59.939 8.62733C59.7533 8.45757 59.4702 8.37271 59.0901 8.37271H57.6972V10.5146H59.0901ZM68.2749 5.99121C69.1857 5.99121 69.9642 6.1959 70.6096 6.60531C71.2642 7.00471 71.7637 7.58388 72.1086 8.34275C72.4623 9.10163 72.6392 10.0153 72.6392 11.0837C72.6392 12.1522 72.4623 13.0658 72.1086 13.8247C71.7637 14.5836 71.2642 15.1677 70.6096 15.5771C69.9642 15.9765 69.1857 16.1762 68.2749 16.1762C67.3642 16.1762 66.5815 15.9765 65.927 15.5771C65.2725 15.1677 64.7684 14.5836 64.4147 13.8247C64.0611 13.0658 63.8841 12.1522 63.8841 11.0837C63.8841 10.0153 64.0611 9.10163 64.4147 8.34275C64.7684 7.58388 65.2725 7.00471 65.927 6.60531C66.5815 6.1959 67.3642 5.99121 68.2749 5.99121ZM68.2749 8.32777C67.205 8.32777 66.6698 9.24643 66.6698 11.0837C66.6698 12.921 67.205 13.8397 68.2749 13.8397C69.3362 13.8397 69.8668 12.921 69.8668 11.0837C69.8668 9.24643 69.3362 8.32777 68.2749 8.32777Z" fill="white"/>
<path d="M12.0582 50.4757C13.1813 50.4757 14.0524 50.7702 14.6714 51.3594C15.2905 51.9486 15.6 52.7874 15.6 53.8757C15.6 54.964 15.2905 55.8028 14.6714 56.392C14.0524 56.9812 13.1813 57.2757 12.0582 57.2757H10.4133V60.3612H7.70714V50.4757H12.0582ZM11.6204 55.059C12.0272 55.059 12.3367 54.964 12.549 54.7744C12.7701 54.5746 12.8806 54.275 12.8806 53.8757C12.8806 53.4764 12.7701 53.1816 12.549 52.992C12.3367 52.7922 12.0272 52.6924 11.6204 52.6924H10.4133V55.059H11.6204ZM21.3237 50.4757C22.4114 50.4757 23.2516 50.7603 23.8441 51.3295C24.4454 51.8887 24.7461 52.6376 24.7461 53.5762C24.7461 54.3152 24.6002 54.9293 24.3084 55.4184C24.0254 55.8977 23.6053 56.2521 23.0482 56.4819L25.2502 60.3612H22.292L20.5941 56.9312H19.493V60.3612H16.84V50.4757H21.3237ZM20.8859 54.8493C21.2662 54.8493 21.5492 54.7693 21.7349 54.6096C21.9295 54.4398 22.0267 54.1654 22.0267 53.7858C22.0267 53.4063 21.9295 53.1319 21.7349 52.9621C21.5492 52.7922 21.2662 52.7074 20.8859 52.7074H19.493V54.8493H20.8859ZM28.8085 50.4757V60.3612H26.1024V50.4757H28.8085ZM38.6803 50.4757V60.3612H35.7089L33.3211 55.4634L32.764 54.1303H32.7374L32.7905 56.0775V60.3612H30.4293V50.4757H33.3874L35.7752 55.3735L36.3456 56.7065H36.3589L36.3058 54.7594V50.4757H38.6803ZM48.0873 50.4757V52.7673H45.3016V60.3612H42.5954V52.7673H39.7832V50.4757H48.0873ZM52.7572 50.3259C54.3843 50.3259 55.6888 50.8403 56.6705 51.8687L55.4898 53.8308C55.0919 53.4512 54.6674 53.1568 54.2164 52.9471C53.7741 52.7275 53.2833 52.6176 52.7439 52.6176C52.3282 52.6176 52.0318 52.6826 51.8551 52.8123C51.6869 52.942 51.6031 53.1067 51.6031 53.3065C51.6031 53.4662 51.6869 53.5962 51.8551 53.696C52.0231 53.7957 52.2664 53.8856 52.5847 53.9656L53.9113 54.3101C54.7955 54.5398 55.4543 54.8792 55.8878 55.3286C56.321 55.768 56.5378 56.3719 56.5378 57.1409C56.5378 57.8898 56.3696 58.5138 56.0337 59.0132C55.7063 59.5125 55.2553 59.887 54.6807 60.1365C54.1057 60.386 53.4557 60.511 52.7307 60.511C51.8639 60.511 51.0414 60.3663 50.2633 60.0766C49.4939 59.7869 48.8705 59.3876 48.3929 58.8784L49.5602 56.8563C49.799 57.116 50.0909 57.3506 50.4358 57.5603C50.7807 57.7601 51.1476 57.9198 51.5368 58.0396C51.9257 58.1594 52.3017 58.2193 52.6643 58.2193C53.0445 58.2193 53.3186 58.1594 53.4868 58.0396C53.6635 57.9198 53.7521 57.755 53.7521 57.5453C53.7521 57.3755 53.6945 57.2407 53.5796 57.1409C53.4645 57.031 53.248 56.9363 52.9296 56.8563L51.4705 56.4819C50.9929 56.3621 50.5506 56.1973 50.1439 55.9876C49.7369 55.7779 49.4098 55.4882 49.1623 55.1189C48.9235 54.7393 48.8041 54.2451 48.8041 53.6361C48.8041 52.9869 48.9588 52.4178 49.2684 51.9286C49.5778 51.4292 50.0288 51.0398 50.6215 50.7603C51.2139 50.4706 51.9257 50.3259 52.7572 50.3259Z" fill="white"/>
<path d="M22.2857 41.0396V0.59906H37.8061V11.2334V24.7136H77.602V67.5506H63.6734V41.0396H22.2857Z" stroke="white" stroke-width="3"/>
<path d="M37.9388 24.4141L22.4184 41.0397" stroke="white" stroke-width="3"/>
<path d="M77.602 24.7136L63.5408 41.489" stroke="white" stroke-width="3"/>
</g>
<defs>
<clipPath id="clip0">
<rect width="78" height="68" fill="white"/>
</clipPath>
</defs>
</svg>
